# xmcd
#
# Track frame offsets:
#	150
#	15591
#	30939
#	46162
#	61537
#	78454
#	97691
#	115284
#	133814
#	150404
#	165330
#	181319
#	200441
#	217856
#	235909
#	253143
#	269136
#	300901
#
# Disc length: 4298 seconds
#
# Revision: 1
# Processed by: cddbd v1.5PL3 Copyright (c) Steve Scherf et al.
# Submitted via: audiograbber 1.83.01
#
DISCID=d810c812
DTITLE=Татьяна Овсиенко - Я не скажу прощай
DYEAR=2004
DGENRE=Pop
TTITLE0=Я буду лететь за тобой
TTITLE1=Свежий ветер
TTITLE2=Два кубика льда
TTITLE3=Цепочка
TTITLE4=Ты теряешь облака
TTITLE5=Две минуты
TTITLE6=Поплачу и брошу
TTITLE7=Осень сестра
TTITLE8=Мой малыш
TTITLE9=Река любви
TTITLE10=Гуси-лебеди
TTITLE11=Это не ты
TTITLE12=Босоногая
TTITLE13=Где-то
TTITLE14=Темная ночь
TTITLE15=По льду
TTITLE16=Я буду лететь за тобой (mix)
TTITLE17=Data Track
EXTD=
EXTT0=
EXTT1=
EXTT2=
EXTT3=
EXTT4=
EXTT5=
EXTT6=
EXTT7=
EXTT8=
EXTT9=
EXTT10=
EXTT11=
EXTT12=
EXTT13=
EXTT14=
EXTT15=
EXTT16=
EXTT17=
PLAYORDER=
